# xmcd CD database file
#
# Track frame offsets:
#	150
#	12253
#	26499
#	40489
#	54034
#	67048
#	85226
#	99082
#	113777
#	126799
#	141043
#	160291
#
# Disc length: 2453 seconds
#
# Revision: 0
# Processed by: cddbd v1.5.2PL0 Copyright (c) Steve Scherf et al.
# Submitted via: CDex 1.51
#
DISCID=9309930c
DTITLE=Hoochie Coochie Band - Screamin' The Blues
DYEAR=2006
DGENRE=Blues
TTITLE0=Big Boss Man (Jimmy Reed)
TTITLE1=3,4,5 Times (Jan Svihalek)
TTITLE2=Don't Tell Me (Jan Svihalek)
TTITLE3=You Don't Have To Go (Jimmy Reed)
TTITLE4=Big Belly Blues (Jan Svihalek)
TTITLE5=Catfish Blues (Traditional)
TTITLE6=Don't Start Me Talkin' (Sonny Boy Williamson)
TTITLE7=Black Hair Blues (Jan Svihalek)
TTITLE8=What's About (Jan Svihalek)
TTITLE9=That's All Right (Jimmy Rodgers)
TTITLE10=Who's Been Talkin' (Chester Burnett)
TTITLE11=19 Years Old (McKinley Morganfield)
EXTD=YEAR: 2006
EXTT0=
EXTT1=
EXTT2=
EXTT3=
EXTT4=
EXTT5=
EXTT6=
EXTT7=
EXTT8=
EXTT9=
EXTT10=
EXTT11=
PLAYORDER=
